<svg width="1400" height="555" viewBox="0 0 1400 555" fill="none" xmlns="http://www.w3.org/2000/svg">
<path fill-rule="evenodd" clip-rule="evenodd" d="M1077.77 77.1886C771.69 27.0874 555.96 7.40636 257.48 2.34782C11.9718 -1.81147 -150.262 2.03821 -426.54 18.5812C-589 28.3073 -652.415 35.078 -780.666 56.3816C-881.676 73.1614 -944.903 82.2002 -1004.95 88.4444C-1094.32 97.7394 -1125.6 104.026 -1124.99 112.568C-1124.72 116.33 -1121.61 117.836 -1119.21 115.369C-1117.12 113.229 -1104.98 111.744 -1030.29 104.496C-967.757 98.4274 -921.677 92.7314 -829.087 79.6208C-621.369 50.2124 -602.047 48.6764 -277.566 35.8115C182.501 17.5685 558.328 33.4214 921.763 86.4026C1266.88 136.713 1552.58 198.973 1627.69 240.241C1640.11 247.059 1640.13 246.686 1626.89 251.247C1596.06 261.866 1525.65 267.354 1385.9 270.029C1226.32 273.084 1139.55 272.036 879.088 263.912C680.753 257.726 675.991 257.682 414.792 259.715C141.193 261.845 20.8692 265.01 -142.169 274.366C-199.744 277.668 -204.6 277.812 -275.721 278.317C-417.237 279.324 -538.285 286.805 -656.584 301.853C-695.099 306.752 -701.801 311.028 -690.729 323.634C-681.816 333.784 -614.014 332.479 -446.479 318.936C-239.711 302.22 -210.519 300.973 -90.7226 303.72C81.0231 307.66 224.584 316.466 345.137 330.458C465.927 344.476 668.186 371.729 777.879 388.765C839.145 398.28 1076.97 442.568 1088.97 446.697L1098.3 449.906L1089.87 450.6C1075.19 451.812 814.001 458.862 699.093 461.148C663.113 461.863 611.133 462.496 583.583 462.552C493.771 462.738 301.343 466.662 267.531 468.997C246.412 470.458 239.693 480.455 250.716 494.018C258.226 503.255 304.842 512.975 405.518 526.297C429.486 529.469 473.63 535.597 503.615 539.917C533.601 544.238 578.348 549.745 603.055 552.156C627.762 554.566 664.844 558.965 685.46 561.931C706.076 564.898 732.044 568.474 743.167 569.879L763.391 572.433L745.392 568.666C721.834 563.735 666.244 550.127 619.07 537.745C563.747 523.223 443.251 500.692 387.814 494.504C381.549 493.804 379.311 493.085 380.983 492.311C384.244 490.799 524.127 488.141 590.069 488.339C789.343 488.936 1129.24 479.184 1145.82 472.397C1160.53 466.375 1158.24 450.399 1141.07 439.29C1110.31 419.385 836.116 368.765 591.537 337.841C570.574 335.189 521.559 328.838 482.614 323.725C336.152 304.498 192.524 289.881 138.647 288.724C135.251 288.651 132.84 288.185 133.292 287.69C135.107 285.693 510.29 282.81 655.972 283.674C688.914 283.868 784.466 286.255 868.309 288.975C1159.72 298.431 1226.91 299.316 1402.42 296.008C1619.14 291.922 1677.25 280.116 1662.21 243.222C1649.69 212.504 1588.87 187.814 1421.62 145.551C1381.61 135.441 1139.12 87.2297 1077.77 77.1886Z" fill="url(#paint0_linear_61_834)"/>
<defs>
<linearGradient id="paint0_linear_61_834" x1="472.413" y1="656.03" x2="527.118" y2="143.002" gradientUnits="userSpaceOnUse">
<stop stop-color="white" stop-opacity="0.04"/>
<stop offset="1" stop-color="white" stop-opacity="0.01"/>
</linearGradient>
</defs>
</svg>
